<svg xmlns="http://www.w3.org/2000/svg" width="760" height="460" viewBox="0 0 760 460">
<rect width="100%" height="100%" fill="white"/>
<text x="380.0" y="28" text-anchor="middle" font-family="Arial" font-size="18">hotpotqa: EM vs mean tokens</text>
<line x1="70" y1="390" x2="690" y2="390" stroke="#222"/>
<line x1="70" y1="390" x2="70" y2="70" stroke="#222"/>
<text x="380.0" y="438" text-anchor="middle" font-family="Arial" font-size="13">mean tokens</text>
<text transform="translate(20 230.0) rotate(-90)" text-anchor="middle" font-family="Arial" font-size="13">EM</text>
<line x1="70.0" y1="390" x2="70.0" y2="395" stroke="#222"/>
<text x="70.0" y="410" text-anchor="middle" font-family="Arial" font-size="10">0</text>
<line x1="65" y1="390.0" x2="70" y2="390.0" stroke="#222"/>
<text x="61" y="393.0" text-anchor="end" font-family="Arial" font-size="10">0.00</text>
<line x1="194.0" y1="390" x2="194.0" y2="395" stroke="#222"/>
<text x="194.0" y="410" text-anchor="middle" font-family="Arial" font-size="10">1907</text>
<line x1="65" y1="326.0" x2="70" y2="326.0" stroke="#222"/>
<text x="61" y="329.0" text-anchor="end" font-family="Arial" font-size="10">0.08</text>
<line x1="318.0" y1="390" x2="318.0" y2="395" stroke="#222"/>
<text x="318.0" y="410" text-anchor="middle" font-family="Arial" font-size="10">3814</text>
<line x1="65" y1="262.0" x2="70" y2="262.0" stroke="#222"/>
<text x="61" y="265.0" text-anchor="end" font-family="Arial" font-size="10">0.15</text>
<line x1="442.0" y1="390" x2="442.0" y2="395" stroke="#222"/>
<text x="442.0" y="410" text-anchor="middle" font-family="Arial" font-size="10">5722</text>
<line x1="65" y1="198.0" x2="70" y2="198.0" stroke="#222"/>
<text x="61" y="201.0" text-anchor="end" font-family="Arial" font-size="10">0.23</text>
<line x1="566.0" y1="390" x2="566.0" y2="395" stroke="#222"/>
<text x="566.0" y="410" text-anchor="middle" font-family="Arial" font-size="10">7629</text>
<line x1="65" y1="134.0" x2="70" y2="134.0" stroke="#222"/>
<text x="61" y="137.0" text-anchor="end" font-family="Arial" font-size="10">0.31</text>
<line x1="690.0" y1="390" x2="690.0" y2="395" stroke="#222"/>
<text x="690.0" y="410" text-anchor="middle" font-family="Arial" font-size="10">9536</text>
<line x1="65" y1="70.0" x2="70" y2="70.0" stroke="#222"/>
<text x="61" y="73.0" text-anchor="end" font-family="Arial" font-size="10">0.38</text>
<circle cx="127.5" cy="119.3" r="6" fill="#111111" stroke="#111111" stroke-width="2"/>
<text x="135.5" y="111.3" font-family="Arial" font-size="11">naive</text>
<circle cx="489.8" cy="129.3" r="6" fill="#ff7f0e" stroke="none" stroke-width="2"/>
<text x="497.8" y="121.3" font-family="Arial" font-size="11">ircot</text>
<circle cx="269.6" cy="270.1" r="6" fill="#17becf" stroke="none" stroke-width="2"/>
<text x="277.6" y="262.1" font-family="Arial" font-size="11">opera</text>
<circle cx="644.1" cy="185.5" r="6" fill="#1f77b4" stroke="none" stroke-width="2"/>
<text x="652.1" y="177.5" font-family="Arial" font-size="11">ma-rag</text>
<circle cx="426.4" cy="111.7" r="6" fill="#d62728" stroke="none" stroke-width="2"/>
<text x="434.4" y="103.7" font-family="Arial" font-size="11">adaptive_default</text>
<circle cx="187.7" cy="141.1" r="6" fill="#2ca02c" stroke="none" stroke-width="2"/>
<text x="195.7" y="133.1" font-family="Arial" font-size="11">force_easy</text>
<circle cx="503.2" cy="115.1" r="6" fill="#9467bd" stroke="none" stroke-width="2"/>
<text x="511.2" y="107.1" font-family="Arial" font-size="11">force_hard</text>
<circle cx="401.4" cy="111.7" r="6" fill="#e377c2" stroke="#111111" stroke-width="2"/>
<text x="409.4" y="103.7" font-family="Arial" font-size="11">no_critic</text>
<circle cx="463.4" cy="119.3" r="6" fill="#bcbd22" stroke="none" stroke-width="2"/>
<text x="471.4" y="111.3" font-family="Arial" font-size="11">force_hard_no_critic</text>
</svg>